<svg xmlns="http://www.w3.org/2000/svg" xmlns:xlink="http://www.w3.org/1999/xlink" width="500" zoomAndPan="magnify" viewBox="0 0 375 74.999997" height="100" preserveAspectRatio="xMidYMid meet" version="1.0"><defs><g/><clipPath id="db079ca750"><path d="M 125.285156 0.75 L 197.285156 0.75 L 197.285156 27 L 125.285156 27 Z M 125.285156 0.75 " clip-rule="nonzero"/></clipPath><clipPath id="6047712bbf"><path d="M 160 17 L 172 17 L 172 30 L 160 30 Z M 160 17 " clip-rule="nonzero"/></clipPath><clipPath id="7aa5474fc4"><path d="M 155.636719 20.332031 L 166.257812 14.128906 L 171.785156 23.589844 L 161.164062 29.792969 Z M 155.636719 20.332031 " clip-rule="nonzero"/></clipPath><clipPath id="4d4df79026"><path d="M 160.949219 17.230469 L 171.726562 23.488281 L 161.105469 29.695312 L 160.949219 17.230469 " clip-rule="nonzero"/></clipPath><clipPath id="bd6c7d78dc"><path d="M 138.101562 6.230469 L 147.75 6.230469 L 147.75 15.6875 L 138.101562 15.6875 Z M 138.101562 6.230469 " clip-rule="nonzero"/></clipPath><clipPath id="0240c2d5e5"><path d="M 171.148438 20.238281 L 175.835938 20.238281 L 175.835938 29.699219 L 171.148438 29.699219 Z M 171.148438 20.238281 " clip-rule="nonzero"/></clipPath></defs><g fill="#000000" fill-opacity="1"><g transform="translate(0.0302726, 73.924396)"><g><path d="M 38.890625 -48.734375 C 40.992188 -47.835938 42.75 -46.265625 44.15625 -44.015625 C 45.5625 -41.765625 46.265625 -39.164062 46.265625 -36.21875 C 46.265625 -32.46875 45.101562 -29.3125 42.78125 -26.75 C 40.46875 -24.195312 37.203125 -22.664062 32.984375 -22.15625 C 34.804688 -20.882812 36.195312 -19.835938 37.15625 -19.015625 C 38.125 -18.203125 39.179688 -17.054688 40.328125 -15.578125 C 41.472656 -14.097656 42.890625 -12 44.578125 -9.28125 L 50.34375 0 L 38.1875 0 L 30.03125 -12.234375 C 28.195312 -14.953125 26.773438 -16.882812 25.765625 -18.03125 C 24.765625 -19.1875 23.703125 -19.972656 22.578125 -20.390625 C 21.453125 -20.816406 19.859375 -21.03125 17.796875 -21.03125 L 15.265625 -21.03125 L 15.265625 0 L 5.140625 0 L 5.140625 -50.34375 L 27.140625 -50.34375 C 29.535156 -50.34375 31.703125 -50.238281 33.640625 -50.03125 C 35.585938 -49.820312 37.335938 -49.390625 38.890625 -48.734375 Z M 31.71875 -29.609375 C 32.9375 -29.984375 33.921875 -30.6875 34.671875 -31.71875 C 35.421875 -32.75 35.796875 -34.035156 35.796875 -35.578125 C 35.796875 -38.253906 34.644531 -40.109375 32.34375 -41.140625 C 31.738281 -41.421875 30.988281 -41.609375 30.09375 -41.703125 C 29.207031 -41.796875 27.6875 -41.84375 25.53125 -41.84375 L 15.265625 -41.84375 L 15.265625 -29.046875 L 24.1875 -29.046875 C 27.84375 -29.046875 30.351562 -29.234375 31.71875 -29.609375 Z M 31.71875 -29.609375 "/></g></g></g><g fill="#000000" fill-opacity="1"><g transform="translate(50.791067, 73.924396)"><g><path d="M 18.984375 -37.265625 C 24.796875 -37.265625 29.128906 -35.378906 31.984375 -31.609375 C 34.847656 -27.835938 36.28125 -22.457031 36.28125 -15.46875 L 12.09375 -15.46875 C 12.1875 -13.03125 12.898438 -10.929688 14.234375 -9.171875 C 15.578125 -7.421875 17.515625 -6.546875 20.046875 -6.546875 C 21.640625 -6.546875 22.9375 -6.953125 23.9375 -7.765625 C 24.945312 -8.585938 25.6875 -9.867188 26.15625 -11.609375 L 35.796875 -9.984375 C 34.578125 -6.421875 32.609375 -3.722656 29.890625 -1.890625 C 27.171875 -0.0664062 23.84375 0.84375 19.90625 0.84375 C 14.039062 0.84375 9.609375 -0.914062 6.609375 -4.4375 C 5.203125 -6.070312 4.125 -8.128906 3.375 -10.609375 C 2.625 -13.097656 2.25 -15.5625 2.25 -18 C 2.25 -21.332031 2.847656 -24.460938 4.046875 -27.390625 C 5.242188 -30.316406 7.09375 -32.691406 9.59375 -34.515625 C 12.101562 -36.347656 15.234375 -37.265625 18.984375 -37.265625 Z M 12.3125 -21.375 L 26.71875 -21.375 C 26.675781 -24.332031 25.9375 -26.488281 24.5 -27.84375 C 23.070312 -29.207031 21.398438 -29.890625 19.484375 -29.890625 C 17.234375 -29.890625 15.472656 -29.078125 14.203125 -27.453125 C 12.941406 -25.835938 12.3125 -23.8125 12.3125 -21.375 Z M 12.3125 -21.375 "/></g></g></g><g fill="#000000" fill-opacity="1"><g transform="translate(89.881097, 73.924396)"><g><path d="M 26.015625 -37.265625 C 28.171875 -37.265625 30.046875 -36.898438 31.640625 -36.171875 C 33.234375 -35.453125 34.5 -34.597656 35.4375 -33.609375 C 36.5625 -32.390625 37.300781 -30.945312 37.65625 -29.28125 C 38.007812 -27.625 38.1875 -25.785156 38.1875 -23.765625 L 38.1875 0 L 28.546875 0 L 28.546875 -19.90625 C 28.546875 -23.28125 28.171875 -25.785156 27.421875 -27.421875 C 26.671875 -29.066406 25.078125 -29.890625 22.640625 -29.890625 C 20.347656 -29.890625 18.566406 -29.234375 17.296875 -27.921875 C 16.035156 -26.609375 15.285156 -25.082031 15.046875 -23.34375 C 14.910156 -22.21875 14.804688 -21.207031 14.734375 -20.3125 C 14.660156 -19.425781 14.625 -18.421875 14.625 -17.296875 L 14.625 0 L 5 0 L 5 -36.421875 L 14.140625 -36.421875 L 14.140625 -31.078125 C 15.171875 -32.628906 16.703125 -34.046875 18.734375 -35.328125 C 20.773438 -36.617188 23.203125 -37.265625 26.015625 -37.265625 Z M 26.015625 -37.265625 "/></g></g></g><g fill="#000000" fill-opacity="1"><g transform="translate(132.837955, 73.924396)"><g><path d="M 15.1875 -36.421875 L 21.734375 -36.421875 L 21.734375 -28.765625 L 15.1875 -28.765625 L 15.1875 -12.734375 C 15.1875 -11.179688 15.242188 -10.03125 15.359375 -9.28125 C 15.484375 -8.53125 15.734375 -7.988281 16.109375 -7.65625 C 16.484375 -7.332031 17.066406 -7.171875 17.859375 -7.171875 C 18.847656 -7.171875 20.140625 -7.476562 21.734375 -8.09375 L 22.578125 -0.640625 C 21.585938 -0.160156 20.390625 0.203125 18.984375 0.453125 C 17.578125 0.710938 16.242188 0.84375 14.984375 0.84375 C 13.148438 0.84375 11.53125 0.539062 10.125 -0.0625 C 8.71875 -0.675781 7.6875 -1.5 7.03125 -2.53125 C 6.332031 -3.707031 5.898438 -5.007812 5.734375 -6.4375 C 5.566406 -7.863281 5.484375 -9.65625 5.484375 -11.8125 L 5.484375 -28.765625 L 1.0625 -28.765625 L 1.0625 -36.421875 L 5.484375 -36.421875 L 5.484375 -43.671875 L 15.1875 -49.359375 Z M 15.1875 -36.421875 "/></g></g></g><g fill="#000000" fill-opacity="1"><g transform="translate(156.249797, 73.924396)"><g><path d="M 14.90625 0 L 4.78125 0 L 4.78125 -50.34375 L 14.90625 -50.34375 Z M 14.90625 0 "/></g></g></g><g fill="#000000" fill-opacity="1"><g transform="translate(175.794813, 73.924396)"><g><path d="M 26.015625 -37.265625 C 28.171875 -37.265625 30.046875 -36.898438 31.640625 -36.171875 C 33.234375 -35.453125 34.5 -34.597656 35.4375 -33.609375 C 36.5625 -32.390625 37.300781 -30.945312 37.65625 -29.28125 C 38.007812 -27.625 38.1875 -25.785156 38.1875 -23.765625 L 38.1875 0 L 28.546875 0 L 28.546875 -19.90625 C 28.546875 -23.28125 28.171875 -25.785156 27.421875 -27.421875 C 26.671875 -29.066406 25.078125 -29.890625 22.640625 -29.890625 C 20.347656 -29.890625 18.566406 -29.234375 17.296875 -27.921875 C 16.035156 -26.609375 15.285156 -25.082031 15.046875 -23.34375 C 14.910156 -22.21875 14.804688 -21.207031 14.734375 -20.3125 C 14.660156 -19.425781 14.625 -18.421875 14.625 -17.296875 L 14.625 0 L 5 0 L 5 -36.421875 L 14.140625 -36.421875 L 14.140625 -31.078125 C 15.171875 -32.628906 16.703125 -34.046875 18.734375 -35.328125 C 20.773438 -36.617188 23.203125 -37.265625 26.015625 -37.265625 Z M 26.015625 -37.265625 "/></g></g></g><g fill="#000000" fill-opacity="1"><g transform="translate(218.751671, 73.924396)"><g><path d="M 8.234375 -47.75 C 9.171875 -48.914062 10.390625 -49.78125 11.890625 -50.34375 C 13.390625 -50.90625 15.238281 -51.1875 17.4375 -51.1875 C 20.15625 -51.1875 22.828125 -50.789062 25.453125 -50 L 24.1875 -43.25 C 22.550781 -43.625 21.078125 -43.8125 19.765625 -43.8125 C 18.265625 -43.8125 17.234375 -43.445312 16.671875 -42.71875 C 16.109375 -41.988281 15.828125 -40.921875 15.828125 -39.515625 L 15.828125 -36.421875 L 23.0625 -36.421875 L 23.0625 -28.765625 L 15.828125 -28.765625 L 15.828125 0 L 6.1875 0 L 6.1875 -28.765625 L 0.84375 -28.765625 L 0.84375 -36.421875 L 6.1875 -36.421875 L 6.1875 -40.015625 C 6.1875 -43.484375 6.867188 -46.0625 8.234375 -47.75 Z M 8.234375 -47.75 "/></g></g></g><g fill="#000000" fill-opacity="1"><g transform="translate(242.163513, 73.924396)"><g><path d="M 21.59375 -37.265625 C 25.53125 -37.265625 28.925781 -36.375 31.78125 -34.59375 C 34.644531 -32.8125 36.800781 -30.46875 38.25 -27.5625 C 39.707031 -24.65625 40.4375 -21.585938 40.4375 -18.359375 C 40.4375 -14.984375 39.671875 -11.828125 38.140625 -8.890625 C 36.617188 -5.960938 34.441406 -3.609375 31.609375 -1.828125 C 28.773438 -0.046875 25.457031 0.84375 21.65625 0.84375 C 18.425781 0.84375 15.378906 0.175781 12.515625 -1.15625 C 9.660156 -2.5 7.328125 -4.632812 5.515625 -7.5625 C 3.710938 -10.488281 2.8125 -14.203125 2.8125 -18.703125 C 2.8125 -21.847656 3.523438 -24.835938 4.953125 -27.671875 C 6.390625 -30.503906 8.523438 -32.8125 11.359375 -34.59375 C 14.191406 -36.375 17.601562 -37.265625 21.59375 -37.265625 Z M 12.734375 -18.21875 C 12.734375 -14.5625 13.585938 -11.78125 15.296875 -9.875 C 17.003906 -7.976562 19.101562 -7.03125 21.59375 -7.03125 C 24.070312 -7.03125 26.175781 -7.96875 27.90625 -9.84375 C 29.644531 -11.71875 30.515625 -14.53125 30.515625 -18.28125 C 30.515625 -21.75 29.679688 -24.46875 28.015625 -26.4375 C 26.359375 -28.40625 24.191406 -29.390625 21.515625 -29.390625 C 19.078125 -29.390625 17.003906 -28.425781 15.296875 -26.5 C 13.585938 -24.582031 12.734375 -21.820312 12.734375 -18.21875 Z M 12.734375 -18.21875 "/></g></g></g><g fill="#000000" fill-opacity="1"><g transform="translate(285.120355, 73.924396)"><g><path d="M 21.9375 -37.265625 C 22.96875 -37.265625 24.054688 -37.097656 25.203125 -36.765625 C 26.359375 -36.441406 27.378906 -36.023438 28.265625 -35.515625 L 25.25 -27.078125 C 23.601562 -28.109375 22.101562 -28.625 20.75 -28.625 C 18.914062 -28.625 17.53125 -28 16.59375 -26.75 C 15.65625 -25.507812 15.035156 -23.773438 14.734375 -21.546875 C 14.429688 -19.328125 14.28125 -16.363281 14.28125 -12.65625 L 14.28125 0 L 4.640625 0 L 4.640625 -36.421875 L 13.578125 -36.421875 L 13.578125 -31.296875 L 13.71875 -31.296875 C 14.882812 -33.265625 16.050781 -34.75 17.21875 -35.75 C 18.394531 -36.757812 19.96875 -37.265625 21.9375 -37.265625 Z M 21.9375 -37.265625 "/></g></g></g><g fill="#000000" fill-opacity="1"><g transform="translate(312.469323, 73.924396)"><g><path d="M 24.609375 -37.265625 C 29.347656 -37.265625 32.796875 -35.34375 34.953125 -31.5 C 38.085938 -35.34375 41.789062 -37.265625 46.0625 -37.265625 C 50.09375 -37.265625 53.09375 -36.160156 55.0625 -33.953125 C 57.03125 -31.753906 58.015625 -28.453125 58.015625 -24.046875 L 58.015625 0 L 48.375 0 L 48.375 -21.796875 C 48.375 -24.421875 48.035156 -26.425781 47.359375 -27.8125 C 46.679688 -29.195312 45.3125 -29.890625 43.25 -29.890625 C 41.28125 -29.890625 39.695312 -29.207031 38.5 -27.84375 C 37.300781 -26.488281 36.5625 -24.734375 36.28125 -22.578125 C 36.09375 -20.890625 36 -19.390625 36 -18.078125 L 36 0 L 26.375 0 L 26.375 -21.453125 C 26.375 -24.398438 26.054688 -26.539062 25.421875 -27.875 C 24.785156 -29.21875 23.4375 -29.890625 21.375 -29.890625 C 19.875 -29.890625 18.523438 -29.488281 17.328125 -28.6875 C 16.140625 -27.894531 15.3125 -26.796875 14.84375 -25.390625 C 14.28125 -23.703125 14 -21.332031 14 -18.28125 L 14 0 L 4.359375 0 L 4.359375 -36.421875 L 13.296875 -36.421875 L 13.4375 -31.5 C 14.9375 -33.332031 16.515625 -34.75 18.171875 -35.75 C 19.835938 -36.757812 21.984375 -37.265625 24.609375 -37.265625 Z M 24.609375 -37.265625 "/></g></g></g><g clip-path="url(#db079ca750)"><path fill="#ffbc66" d="M 125.273438 23.777344 C 127.230469 26.820312 131.273438 27.691406 134.300781 25.722656 C 143.550781 19.699219 161.273438 8.167969 161.273438 8.167969 C 161.273438 8.167969 178.992188 19.699219 188.246094 25.722656 C 191.269531 27.691406 195.3125 26.820312 197.269531 23.777344 C 197.269531 23.773438 197.269531 23.773438 197.269531 23.773438 C 197.269531 23.773438 163.046875 1.5 163.046875 1.5 C 161.964844 0.800781 160.578125 0.800781 159.5 1.5 C 159.5 1.5 125.273438 23.773438 125.273438 23.773438 C 125.273438 23.773438 125.273438 23.773438 125.273438 23.777344 Z M 125.273438 23.777344 " fill-opacity="1" fill-rule="evenodd"/></g><g clip-path="url(#6047712bbf)"><g clip-path="url(#7aa5474fc4)"><g clip-path="url(#4d4df79026)"><path fill="#000000" d="M 155.636719 20.332031 L 166.257812 14.128906 L 171.6875 23.421875 L 161.066406 29.628906 Z M 155.636719 20.332031 " fill-opacity="1" fill-rule="nonzero"/></g></g></g><g clip-path="url(#bd6c7d78dc)"><path fill="#ffbc66" d="M 138.101562 6.230469 L 147.621094 6.230469 L 147.621094 15.753906 L 138.101562 15.753906 Z M 138.101562 6.230469 " fill-opacity="1" fill-rule="nonzero"/></g><g clip-path="url(#0240c2d5e5)"><path fill="#ffffff" d="M 171.148438 20.238281 L 175.542969 20.238281 L 175.542969 29.761719 L 171.148438 29.761719 Z M 171.148438 20.238281 " fill-opacity="1" fill-rule="nonzero"/></g></svg>